<svg width="465" height="384" viewBox="0 0 465 384" fill="none" xmlns="http://www.w3.org/2000/svg">
<path fill-rule="evenodd" clip-rule="evenodd" d="M128.418 1.15651C126.768 1.74151 124.139 3.11551 122.577 4.21051C118.844 6.82551 2.41825 181.471 0.99825 186.586C-0.33275 191.379 -0.33275 192.491 0.99825 197.284C2.42325 202.415 118.849 377.051 122.577 379.648C124.139 380.737 126.948 382.147 128.817 382.781C131.327 383.633 173.513 383.935 290.099 383.935C430.574 383.935 448.392 383.763 451.7 382.382C456.388 380.423 460.555 376.498 463.01 371.725C464.866 368.115 464.918 363.234 464.918 191.935C464.918 20.6345 464.866 15.7545 463.01 12.1445C460.555 7.37151 456.388 3.44551 451.7 1.48751C448.389 0.104508 430.653 -0.0564914 289.7 0.0135086C180.605 0.0675086 130.486 0.422506 128.418 1.15651ZM422.918 191.935V340.935L284.668 340.906L146.418 340.88L97.4183 267.275C70.4682 226.793 48.4183 192.89 48.4183 191.935C48.4183 190.98 70.4682 157.077 97.4183 116.595L146.418 42.9895L284.668 42.9625L422.918 42.9345V191.935ZM197.665 116.68L182.92 131.425L213.163 161.68L243.406 191.935L213.159 222.194L182.912 252.454L197.918 267.435L212.924 282.415L243.175 252.178L273.426 221.939L303.667 252.18L333.908 282.419L348.916 267.437L363.924 252.454L333.677 222.194L303.43 191.935L333.677 161.676L363.924 131.416L348.918 116.435L333.912 101.454L303.659 131.694L273.406 161.935L243.418 131.935C226.925 115.435 213.201 101.935 212.92 101.935C212.639 101.935 205.774 108.57 197.665 116.68Z" fill="black"/>
</svg>
