<svg width="56" height="28" viewBox="0 0 56 28" fill="none" xmlns="http://www.w3.org/2000/svg">
<rect width="56" height="28" rx="14" fill="#292929"/>
<circle cx="15" cy="14" r="12" fill="#F0F0F0"/>
<path fill-rule="evenodd" clip-rule="evenodd" d="M13.5844 8.3325C11.6668 8.94995 10.0466 10.5534 9.50464 12.37L9.18738 13.4336L8.09379 13.4875C7.07267 13.5376 7 13.5714 7 13.9964V14.4516L10.4187 14.5427L13.8374 14.6337V15.0889C13.8374 15.5428 13.831 15.5443 11.5908 15.6352C9.3507 15.726 9.34425 15.7275 9.34425 16.1814V16.6366L12.4699 16.7277L15.5956 16.8187V17.2739V17.7291L11.5908 17.8202L7.58606 17.9112V18.3664V18.8216L10.7117 18.9127C13.7561 19.0013 13.839 19.0143 13.8989 19.4074C13.9747 19.9034 14.8607 20.0986 16.3753 19.9529C18.4421 19.7541 20.5724 18.3469 21.4672 16.5895C22.3375 14.8801 22.1323 14.0492 20.92 14.3733C18.9473 14.9006 16.9394 14.0297 16.0637 12.2666C15.6183 11.3698 15.5981 10.4465 16.0002 9.3427C16.169 8.87912 16.2598 8.38476 16.2018 8.24382C16.0545 7.88621 14.8435 7.92718 13.5844 8.3325Z" fill="#292929"/>
</svg>
