<svg width="56" height="28" viewBox="0 0 56 28" fill="none" xmlns="http://www.w3.org/2000/svg">
<rect width="56" height="28" rx="14" fill="#E9E9E9"/>
<circle cx="41" cy="14" r="12" fill="#151515"/>
<path d="M40.9926 7.46029C40.869 7.46222 40.7512 7.51312 40.6651 7.60181C40.579 7.69049 40.5316 7.80973 40.5333 7.93334V9.33334C40.5324 9.39518 40.5438 9.45657 40.5669 9.51396C40.5899 9.57134 40.6242 9.62357 40.6676 9.66761C40.711 9.71165 40.7628 9.74662 40.8198 9.77049C40.8769 9.79436 40.9381 9.80665 40.9999 9.80665C41.0618 9.80665 41.123 9.79436 41.1801 9.77049C41.2371 9.74662 41.2889 9.71165 41.3323 9.66761C41.3757 9.62357 41.4099 9.57134 41.433 9.51396C41.4561 9.45657 41.4675 9.39518 41.4666 9.33334V7.93334C41.4675 7.8709 41.4558 7.80893 41.4323 7.75109C41.4087 7.69325 41.3738 7.64073 41.3296 7.59662C41.2854 7.55251 41.2328 7.51771 41.175 7.4943C41.1171 7.47088 41.0551 7.45932 40.9926 7.46029ZM36.7051 9.23946C36.6124 9.23966 36.5218 9.26751 36.4449 9.31943C36.3681 9.37135 36.3084 9.445 36.2736 9.53097C36.2388 9.61695 36.2304 9.71135 36.2494 9.80212C36.2685 9.8929 36.3142 9.97594 36.3807 10.0406L37.3705 11.0305C37.4135 11.0753 37.465 11.111 37.522 11.1356C37.579 11.1603 37.6403 11.1733 37.7024 11.1739C37.7645 11.1746 37.8261 11.1628 37.8836 11.1393C37.9411 11.1159 37.9933 11.0812 38.0372 11.0373C38.0811 10.9933 38.1158 10.9411 38.1393 10.8836C38.1627 10.8262 38.1745 10.7646 38.1739 10.7025C38.1732 10.6404 38.1602 10.5791 38.1356 10.5221C38.111 10.4651 38.0752 10.4136 38.0304 10.3706L37.0406 9.38074C36.997 9.33592 36.9448 9.30032 36.8872 9.27605C36.8296 9.25179 36.7677 9.23934 36.7051 9.23946ZM45.2801 9.23946C45.1589 9.24307 45.0438 9.29374 44.9593 9.38074L43.9695 10.3706C43.9247 10.4136 43.8889 10.4651 43.8643 10.5221C43.8397 10.5791 43.8267 10.6404 43.826 10.7025C43.8254 10.7646 43.8372 10.8262 43.8606 10.8836C43.8841 10.9411 43.9188 10.9933 43.9627 11.0373C44.0066 11.0812 44.0588 11.1159 44.1163 11.1393C44.1738 11.1628 44.2354 11.1746 44.2975 11.1739C44.3595 11.1733 44.4209 11.1603 44.4779 11.1356C44.5349 11.111 44.5864 11.0753 44.6294 11.0305L45.6192 10.0406C45.6866 9.97508 45.7327 9.89069 45.7514 9.79851C45.77 9.70634 45.7604 9.61068 45.7237 9.52407C45.6871 9.43746 45.6251 9.36395 45.5459 9.31316C45.4668 9.26238 45.3742 9.23669 45.2801 9.23946ZM40.9999 10.7333C40.1336 10.7333 39.3027 11.0775 38.6901 11.6901C38.0774 12.3027 37.7333 13.1336 37.7333 14C37.7333 14.8664 38.0774 15.6973 38.6901 16.3099C39.3027 16.9225 40.1336 17.2667 40.9999 17.2667C41.8663 17.2667 42.6972 16.9225 43.3098 16.3099C43.9224 15.6973 44.2666 14.8664 44.2666 14C44.2666 13.1336 43.9224 12.3027 43.3098 11.6901C42.6972 11.0775 41.8663 10.7333 40.9999 10.7333ZM34.9333 13.5333C34.8714 13.5325 34.81 13.5439 34.7527 13.5669C34.6953 13.59 34.643 13.6242 34.599 13.6677C34.555 13.7111 34.52 13.7628 34.4961 13.8199C34.4723 13.8769 34.46 13.9382 34.46 14C34.46 14.0619 34.4723 14.1231 34.4961 14.1801C34.52 14.2372 34.555 14.2889 34.599 14.3323C34.643 14.3758 34.6953 14.41 34.7527 14.4331C34.81 14.4561 34.8714 14.4675 34.9333 14.4667H36.3333C36.3951 14.4675 36.4565 14.4561 36.5139 14.4331C36.5713 14.41 36.6235 14.3758 36.6675 14.3323C36.7116 14.2889 36.7466 14.2372 36.7704 14.1801C36.7943 14.1231 36.8066 14.0619 36.8066 14C36.8066 13.9382 36.7943 13.8769 36.7704 13.8199C36.7466 13.7628 36.7116 13.7111 36.6675 13.6677C36.6235 13.6242 36.5713 13.59 36.5139 13.5669C36.4565 13.5439 36.3951 13.5325 36.3333 13.5333H34.9333ZM45.6666 13.5333C45.6048 13.5325 45.5434 13.5439 45.486 13.5669C45.4286 13.59 45.3764 13.6242 45.3323 13.6677C45.2883 13.7111 45.2533 13.7628 45.2295 13.8199C45.2056 13.8769 45.1933 13.9382 45.1933 14C45.1933 14.0619 45.2056 14.1231 45.2295 14.1801C45.2533 14.2372 45.2883 14.2889 45.3323 14.3323C45.3764 14.3758 45.4286 14.41 45.486 14.4331C45.5434 14.4561 45.6048 14.4675 45.6666 14.4667H47.0666C47.1284 14.4675 47.1898 14.4561 47.2472 14.4331C47.3046 14.41 47.3568 14.3758 47.4009 14.3323C47.4449 14.2889 47.4799 14.2372 47.5038 14.1801C47.5276 14.1231 47.5399 14.0619 47.5399 14C47.5399 13.9382 47.5276 13.8769 47.5038 13.8199C47.4799 13.7628 47.4449 13.7111 47.4009 13.6677C47.3568 13.6242 47.3046 13.59 47.2472 13.5669C47.1898 13.5439 47.1284 13.5325 47.0666 13.5333H45.6666ZM37.6913 16.8283C37.5701 16.8319 37.455 16.8825 37.3705 16.9695L36.3807 17.9594C36.3359 18.0024 36.3001 18.0539 36.2755 18.1109C36.2509 18.1679 36.2379 18.2292 36.2372 18.2913C36.2366 18.3534 36.2484 18.415 36.2718 18.4724C36.2953 18.5299 36.33 18.5822 36.3739 18.6261C36.4178 18.67 36.47 18.7047 36.5275 18.7281C36.585 18.7516 36.6466 18.7634 36.7087 18.7627C36.7707 18.7621 36.8321 18.7491 36.8891 18.7245C36.9461 18.6998 36.9976 18.6641 37.0406 18.6193L38.0304 17.6294C38.0978 17.5639 38.1439 17.4795 38.1626 17.3873C38.1812 17.2951 38.1716 17.1995 38.1349 17.1129C38.0983 17.0263 38.0363 16.9528 37.9571 16.902C37.878 16.8512 37.7853 16.8255 37.6913 16.8283ZM44.2949 16.8283C44.202 16.8283 44.1113 16.856 44.0343 16.9078C43.9573 16.9597 43.8975 17.0333 43.8626 17.1194C43.8276 17.2054 43.8192 17.2998 43.8382 17.3907C43.8572 17.4816 43.9029 17.5647 43.9695 17.6294L44.9593 18.6193C45.0023 18.6641 45.0538 18.6998 45.1108 18.7245C45.1678 18.7491 45.2291 18.7621 45.2912 18.7627C45.3533 18.7634 45.4149 18.7516 45.4724 18.7281C45.5299 18.7047 45.5821 18.67 45.626 18.6261C45.6699 18.5821 45.7046 18.5299 45.7281 18.4724C45.7515 18.415 45.7633 18.3534 45.7627 18.2913C45.762 18.2292 45.749 18.1679 45.7244 18.1109C45.6998 18.0539 45.664 18.0024 45.6192 17.9594L44.6294 16.9695C44.5859 16.9248 44.5339 16.8893 44.4764 16.865C44.419 16.8408 44.3572 16.8283 44.2949 16.8283ZM40.9926 18.1936C40.869 18.1956 40.7512 18.2465 40.6651 18.3351C40.579 18.4238 40.5316 18.5431 40.5333 18.6667V20.0667C40.5324 20.1285 40.5438 20.1899 40.5669 20.2473C40.5899 20.3047 40.6242 20.3569 40.6676 20.4009C40.711 20.445 40.7628 20.48 40.8198 20.5038C40.8769 20.5277 40.9381 20.54 40.9999 20.54C41.0618 20.54 41.123 20.5277 41.1801 20.5038C41.2371 20.48 41.2889 20.445 41.3323 20.4009C41.3757 20.3569 41.4099 20.3047 41.433 20.2473C41.4561 20.1899 41.4675 20.1285 41.4666 20.0667V18.6667C41.4675 18.6042 41.4558 18.5423 41.4323 18.4844C41.4087 18.4266 41.3738 18.3741 41.3296 18.3299C41.2854 18.2858 41.2328 18.251 41.175 18.2276C41.1171 18.2042 41.0551 18.1927 40.9926 18.1936Z" fill="white"/>
</svg>
