<svg width="36" height="36" viewBox="0 0 36 36" fill="none" xmlns="http://www.w3.org/2000/svg">
<g clip-path="url(#clip0_129_40)">
<path fill-rule="evenodd" clip-rule="evenodd" d="M17.2033 0.328314C17.3078 0.223546 17.432 0.140425 17.5686 0.0837106C17.7053 0.026996 17.8518 -0.00219727 17.9998 -0.00219727C18.1478 -0.00219727 18.2943 0.026996 18.431 0.0837106C18.5677 0.140425 18.6918 0.223546 18.7963 0.328314L23.2963 4.82831C23.4009 4.93291 23.4839 5.05709 23.5405 5.19375C23.5971 5.33042 23.6262 5.47689 23.6262 5.62481C23.6262 5.77274 23.5971 5.91921 23.5405 6.05588C23.4839 6.19254 23.4009 6.31672 23.2963 6.42131C23.1917 6.52591 23.0675 6.60888 22.9309 6.66549C22.7942 6.7221 22.6477 6.75124 22.4998 6.75124C22.3519 6.75124 22.2054 6.7221 22.0688 6.66549C21.9321 6.60888 21.8079 6.52591 21.7033 6.42131L19.1248 3.84056V12.3748C19.1248 12.6732 19.0063 12.9593 18.7953 13.1703C18.5843 13.3813 18.2982 13.4998 17.9998 13.4998C17.7014 13.4998 17.4153 13.3813 17.2043 13.1703C16.9933 12.9593 16.8748 12.6732 16.8748 12.3748V3.84056L14.2963 6.42131C14.0851 6.63256 13.7986 6.75124 13.4998 6.75124C13.2011 6.75124 12.9146 6.63256 12.7033 6.42131C12.4921 6.21007 12.3734 5.92356 12.3734 5.62481C12.3734 5.32607 12.4921 5.03956 12.7033 4.82831L17.2033 0.328314V0.328314ZM17.9998 22.4998C18.2982 22.4998 18.5843 22.6183 18.7953 22.8293C19.0063 23.0403 19.1248 23.3264 19.1248 23.6248V32.1591L21.7033 29.5783C21.9146 29.3671 22.2011 29.2484 22.4998 29.2484C22.7986 29.2484 23.0851 29.3671 23.2963 29.5783C23.5076 29.7896 23.6262 30.0761 23.6262 30.3748C23.6262 30.6736 23.5076 30.9601 23.2963 31.1713L18.7963 35.6713C18.6918 35.7761 18.5677 35.8592 18.431 35.9159C18.2943 35.9726 18.1478 36.0018 17.9998 36.0018C17.8518 36.0018 17.7053 35.9726 17.5686 35.9159C17.432 35.8592 17.3078 35.7761 17.2033 35.6713L12.7033 31.1713C12.5987 31.0667 12.5157 30.9425 12.4591 30.8059C12.4025 30.6692 12.3734 30.5227 12.3734 30.3748C12.3734 30.2269 12.4025 30.0804 12.4591 29.9438C12.5157 29.8071 12.5987 29.6829 12.7033 29.5783C12.9146 29.3671 13.2011 29.2484 13.4998 29.2484C13.6477 29.2484 13.7942 29.2775 13.9309 29.3341C14.0675 29.3907 14.1917 29.4737 14.2963 29.5783L16.8748 32.1591V23.6248C16.8748 23.3264 16.9933 23.0403 17.2043 22.8293C17.4153 22.6183 17.7014 22.4998 17.9998 22.4998V22.4998ZM0.328314 18.7963C0.223546 18.6918 0.140425 18.5677 0.0837106 18.431C0.026996 18.2943 -0.00219727 18.1478 -0.00219727 17.9998C-0.00219727 17.8518 0.026996 17.7053 0.0837106 17.5686C0.140425 17.432 0.223546 17.3078 0.328314 17.2033L4.82831 12.7033C5.03956 12.4921 5.32607 12.3734 5.62481 12.3734C5.92356 12.3734 6.21007 12.4921 6.42131 12.7033C6.63256 12.9146 6.75124 13.2011 6.75124 13.4998C6.75124 13.7986 6.63256 14.0851 6.42131 14.2963L3.84056 16.8748H12.3748C12.6732 16.8748 12.9593 16.9933 13.1703 17.2043C13.3813 17.4153 13.4998 17.7014 13.4998 17.9998C13.4998 18.2982 13.3813 18.5843 13.1703 18.7953C12.9593 19.0063 12.6732 19.1248 12.3748 19.1248H3.84056L6.42131 21.7033C6.63256 21.9146 6.75124 22.2011 6.75124 22.4998C6.75124 22.7986 6.63256 23.0851 6.42131 23.2963C6.21007 23.5076 5.92356 23.6262 5.62481 23.6262C5.32607 23.6262 5.03956 23.5076 4.82831 23.2963L0.328314 18.7963V18.7963ZM22.4998 17.9998C22.4998 17.7014 22.6183 17.4153 22.8293 17.2043C23.0403 16.9933 23.3264 16.8748 23.6248 16.8748H32.1591L29.5783 14.2963C29.4737 14.1917 29.3907 14.0675 29.3341 13.9309C29.2775 13.7942 29.2484 13.6477 29.2484 13.4998C29.2484 13.3519 29.2775 13.2054 29.3341 13.0688C29.3907 12.9321 29.4737 12.8079 29.5783 12.7033C29.7896 12.4921 30.0761 12.3734 30.3748 12.3734C30.5227 12.3734 30.6692 12.4025 30.8059 12.4591C30.9425 12.5157 31.0667 12.5987 31.1713 12.7033L35.6713 17.2033C35.7761 17.3078 35.8592 17.432 35.9159 17.5686C35.9726 17.7053 36.0018 17.8518 36.0018 17.9998C36.0018 18.1478 35.9726 18.2943 35.9159 18.431C35.8592 18.5677 35.7761 18.6918 35.6713 18.7963L31.1713 23.2963C31.0667 23.4009 30.9425 23.4839 30.8059 23.5405C30.6692 23.5971 30.5227 23.6262 30.3748 23.6262C30.2269 23.6262 30.0804 23.5971 29.9438 23.5405C29.8071 23.4839 29.6829 23.4009 29.5783 23.2963C29.4737 23.1917 29.3907 23.0675 29.3341 22.9309C29.2775 22.7942 29.2484 22.6477 29.2484 22.4998C29.2484 22.3519 29.2775 22.2054 29.3341 22.0688C29.3907 21.9321 29.4737 21.8079 29.5783 21.7033L32.1591 19.1248H23.6248C23.3264 19.1248 23.0403 19.0063 22.8293 18.7953C22.6183 18.5843 22.4998 18.2982 22.4998 17.9998Z" fill="#6B6B6B"/>
</g>
<defs>
<clipPath id="clip0_129_40">
<rect width="36" height="36" fill="white"/>
</clipPath>
</defs>
</svg>
